<svg xmlns="http://www.w3.org/2000/svg" viewBox="0 0 800 1000" role="img" aria-label="Zip-up jacket">
  <defs>
    <linearGradient id="g" x1="0" y1="0" x2="0" y2="1">
      <stop offset="0%" stop-color="#c79b52"/>
      <stop offset="100%" stop-color="#9a7433"/>
    </linearGradient>
    <linearGradient id="bg" x1="0" y1="0" x2="0.4" y2="1">
      <stop offset="0%" stop-color="#efe9e0"/>
      <stop offset="100%" stop-color="#efe9e0" stop-opacity="0.55"/>
    </linearGradient>
  </defs>
  <rect width="800" height="1000" fill="url(#bg)"/>
  <ellipse cx="400" cy="815" rx="235" ry="26" fill="#000" opacity="0.06"/>
  <g>
    <path d="M330 300 C320 240 340 190 400 185 C460 190 480 240 470 300
             L560 330 C610 348 640 380 655 430 L700 630 L610 662 L565 484
             L558 782 C558 796 548 802 535 802 L265 802 C252 802 242 796 242 782
             L235 484 L190 662 L100 630 L145 430 C160 380 190 348 240 330 Z"
          fill="url(#g)"/>
    <path d="M336 300 C352 330 372 344 400 344 C428 344 448 330 464 300
             C452 286 428 278 400 278 C372 278 348 286 336 300 Z"
          fill="#000" opacity="0.28"/>
    <path d="M400 318 L400 802" stroke="#000" stroke-opacity="0.30" stroke-width="7"/>
    <path d="M400 318 L400 802" stroke="#3a3a42" stroke-width="3" stroke-dasharray="7 6"/>
    <rect x="390" y="470" width="20" height="34" rx="4" fill="#3a3a42"/>
    <path d="M400 504 L400 536" stroke="#3a3a42" stroke-width="4" stroke-linecap="round"/>
    <path d="M300 600 L370 600 L370 690 L300 690 Z" fill="#000" opacity="0.06"/>
    <path d="M430 600 L500 600 L500 690 L430 690 Z" fill="#000" opacity="0.06"/>
    <path d="M368 320 L358 386" stroke="#3a3a42" stroke-width="5" stroke-linecap="round" opacity="0.9"/>
    <path d="M432 320 L442 386" stroke="#3a3a42" stroke-width="5" stroke-linecap="round" opacity="0.9"/>
    <path d="M242 782 L558 782" stroke="#000" stroke-opacity="0.14" stroke-width="3"/>
  </g>
</svg>
